<?xml version="1.0" standalone="no"?>
<!DOCTYPE svg PUBLIC "-//W3C//DTD SVG 20010904//EN"
 "http://www.w3.org/TR/2001/REC-SVG-20010904/DTD/svg10.dtd">
<svg version="1.0" xmlns="http://www.w3.org/2000/svg"
 width="512.000000pt" height="512.000000pt" viewBox="0 0 512.000000 512.000000"
 preserveAspectRatio="xMidYMid meet">
<metadata>
Created by potrace 1.14, written by Peter Selinger 2001-2017
</metadata>
<g transform="translate(0.000000,512.000000) scale(0.100000,-0.100000)"
fill="#000000" stroke="none">
<path d="M717 5105 c-94 -20 -184 -72 -262 -150 -81 -81 -127 -161 -155 -271
-19 -75 -20 -115 -20 -1339 0 -1433 -6 -1320 87 -1689 227 -908 621 -1529
1038 -1636 74 -19 110 -20 724 -20 691 0 708 1 826 51 119 51 273 180 377 316
99 129 252 378 243 393 -3 4 -24 -2 -47 -14 -60 -30 -177 -29 -233 1 -59 32
-107 88 -156 183 -77 149 -199 258 -357 318 -62 24 -79 26 -222 26 -143 0
-160 -2 -222 -26 -160 -61 -291 -179 -365 -329 -50 -104 -108 -161 -184 -183
-77 -23 -125 -20 -195 13 -80 38 -127 93 -150 177 -22 83 -10 144 54 269 92
179 234 334 418 457 116 78 184 109 308 143 274 73 558 56 815 -49 161 -65
402 -268 504 -422 58 -88 137 -247 137 -275 0 -45 27 -8 61 85 20 53 39 97 43
97 3 0 20 -2 37 -6 65 -14 115 62 152 231 19 89 21 129 22 387 l0 287 315 0
c339 0 381 5 463 53 193 114 263 379 156 589 -35 68 -122 152 -192 184 l-62
29 -342 3 -342 3 -3 832 -3 832 -27 74 c-53 146 -154 263 -283 329 -125 65
-54 62 -1545 61 -1053 -1 -1368 -4 -1413 -14z m908 -1004 c148 -52 156 -59
332 -282 143 -182 168 -209 217 -235 50 -26 58 -35 85 -94 39 -84 70 -197 76
-280 l5 -65 -15 54 c-26 92 -77 156 -147 185 -53 23 -97 20 -156 -10 -87 -43
-137 -140 -136 -264 0 -158 102 -290 224 -290 79 0 171 73 205 164 14 40 15
40 9 6 -17 -96 -116 -220 -207 -260 -183 -81 -434 -21 -659 159 -337 268 -512
734 -383 1019 48 106 116 168 222 203 77 26 240 21 328 -10z m2079 4 c101 -26
167 -87 215 -195 93 -213 23 -580 -160 -845 l-51 -75 -162 0 -162 0 4 84 c9
179 -81 306 -218 308 -91 0 -167 -60 -205 -163 -19 -55 -25 -152 -12 -201 l7
-28 -54 0 -54 0 -7 68 c-11 113 20 297 72 428 l24 61 56 6 c30 3 80 18 109 32
49 24 71 48 242 268 104 133 199 248 213 254 32 17 73 16 143 -2z"/>
</g>
</svg>
